<svg xmlns="http://www.w3.org/2000/svg" width="64" height="64" viewBox="-32 -56 64 64" shape-rendering="crispEdges"><rect x="-3" y="-20" width="6" height="22" fill="#544b37"/><rect x="-1" y="-14" width="2" height="15" fill="#8c7950"/><rect x="-6" y="-22" width="4" height="11" fill="#63583b"/><rect x="-12" y="-41" width="0" height="2" fill="#4c7240"/><rect x="-18" y="-39" width="12" height="2" fill="#4c7240"/><rect x="-16" y="-39" width="6" height="1" fill="#6e8c4b"/><rect x="-21" y="-37" width="18" height="2" fill="#4c7240"/><rect x="-19" y="-37" width="9" height="1" fill="#6e8c4b"/><rect x="-22" y="-35" width="20" height="2" fill="#4c7240"/><rect x="-20" y="-35" width="10" height="1" fill="#6e8c4b"/><rect x="-24" y="-33" width="24" height="2" fill="#4c7240"/><rect x="-22" y="-33" width="12" height="1" fill="#6e8c4b"/><rect x="-24" y="-31" width="24" height="2" fill="#365c36"/><rect x="-22" y="-31" width="12" height="1" fill="#6e8c4b"/><rect x="-24" y="-29" width="24" height="2" fill="#365c36"/><rect x="-22" y="-29" width="12" height="1" fill="#6e8c4b"/><rect x="-24" y="-27" width="24" height="2" fill="#365c36"/><rect x="-22" y="-27" width="12" height="1" fill="#4c7240"/><rect x="-24" y="-25" width="24" height="2" fill="#365c36"/><rect x="-22" y="-25" width="12" height="1" fill="#4c7240"/><rect x="-24" y="-23" width="24" height="2" fill="#365c36"/><rect x="-22" y="-23" width="12" height="1" fill="#4c7240"/><rect x="-22" y="-21" width="20" height="2" fill="#365c36"/><rect x="-20" y="-21" width="10" height="1" fill="#4c7240"/><rect x="-21" y="-19" width="18" height="2" fill="#365c36"/><rect x="-19" y="-19" width="9" height="1" fill="#4c7240"/><rect x="-18" y="-17" width="12" height="2" fill="#365c36"/><rect x="-16" y="-17" width="6" height="1" fill="#4c7240"/><rect x="-12" y="-15" width="0" height="2" fill="#365c36"/><rect x="-19" y="-37" width="3" height="1" fill="#4c7240"/><rect x="-22" y="-32" width="2" height="1" fill="#365c36"/><rect x="-20" y="-35" width="2" height="1" fill="#24462e"/><rect x="-18" y="-27" width="2" height="1" fill="#365c36"/><rect x="-23" y="-26" width="3" height="1" fill="#6e8c4b"/><rect x="-11" y="-22" width="3" height="1" fill="#365c36"/><rect x="-9" y="-36" width="3" height="1" fill="#96a360"/><rect x="-4" y="-33" width="2" height="1" fill="#96a360"/><rect x="9" y="-41" width="0" height="2" fill="#4c7240"/><rect x="2" y="-39" width="14" height="2" fill="#4c7240"/><rect x="4" y="-39" width="7" height="1" fill="#6e8c4b"/><rect x="0" y="-37" width="18" height="2" fill="#4c7240"/><rect x="2" y="-37" width="9" height="1" fill="#6e8c4b"/><rect x="-2" y="-35" width="22" height="2" fill="#4c7240"/><rect x="0" y="-35" width="11" height="1" fill="#6e8c4b"/><rect x="-3" y="-33" width="24" height="2" fill="#4c7240"/><rect x="-1" y="-33" width="12" height="1" fill="#6e8c4b"/><rect x="-4" y="-31" width="26" height="2" fill="#4c7240"/><rect x="-2" y="-31" width="13" height="1" fill="#6e8c4b"/><rect x="-4" y="-29" width="26" height="2" fill="#365c36"/><rect x="-2" y="-29" width="13" height="1" fill="#6e8c4b"/><rect x="-5" y="-27" width="28" height="2" fill="#365c36"/><rect x="-3" y="-27" width="14" height="1" fill="#6e8c4b"/><rect x="-4" y="-25" width="26" height="2" fill="#365c36"/><rect x="-2" y="-25" width="13" height="1" fill="#4c7240"/><rect x="-4" y="-23" width="26" height="2" fill="#365c36"/><rect x="-2" y="-23" width="13" height="1" fill="#4c7240"/><rect x="-3" y="-21" width="24" height="2" fill="#365c36"/><rect x="-1" y="-21" width="12" height="1" fill="#4c7240"/><rect x="-2" y="-19" width="22" height="2" fill="#365c36"/><rect x="0" y="-19" width="11" height="1" fill="#4c7240"/><rect x="0" y="-17" width="18" height="2" fill="#365c36"/><rect x="2" y="-17" width="9" height="1" fill="#4c7240"/><rect x="2" y="-15" width="14" height="2" fill="#365c36"/><rect x="4" y="-15" width="7" height="1" fill="#4c7240"/><rect x="9" y="-13" width="0" height="2" fill="#365c36"/><rect x="21" y="-22" width="2" height="1" fill="#24462e"/><rect x="6" y="-20" width="3" height="1" fill="#6e8c4b"/><rect x="7" y="-14" width="2" height="1" fill="#6e8c4b"/><rect x="19" y="-27" width="2" height="1" fill="#96a360"/><rect x="0" y="-25" width="3" height="1" fill="#4c7240"/><rect x="9" y="-29" width="2" height="1" fill="#365c36"/><rect x="12" y="-30" width="3" height="1" fill="#96a360"/><rect x="2" y="-33" width="3" height="1" fill="#96a360"/><rect x="5" y="-40" width="2" height="1" fill="#6e8c4b"/><rect x="5" y="-26" width="2" height="1" fill="#365c36"/><rect x="11" y="-20" width="2" height="1" fill="#96a360"/><rect x="5" y="-37" width="2" height="1" fill="#6e8c4b"/><rect x="0" y="-53" width="0" height="2" fill="#4c7240"/><rect x="-7" y="-51" width="14" height="2" fill="#4c7240"/><rect x="-5" y="-51" width="7" height="1" fill="#6e8c4b"/><rect x="-9" y="-49" width="18" height="2" fill="#4c7240"/><rect x="-7" y="-49" width="9" height="1" fill="#6e8c4b"/><rect x="-11" y="-47" width="22" height="2" fill="#4c7240"/><rect x="-9" y="-47" width="11" height="1" fill="#6e8c4b"/><rect x="-12" y="-45" width="24" height="2" fill="#4c7240"/><rect x="-10" y="-45" width="12" height="1" fill="#6e8c4b"/><rect x="-13" y="-43" width="26" height="2" fill="#4c7240"/><rect x="-11" y="-43" width="13" height="1" fill="#6e8c4b"/><rect x="-13" y="-41" width="26" height="2" fill="#365c36"/><rect x="-11" y="-41" width="13" height="1" fill="#6e8c4b"/><rect x="-14" y="-39" width="28" height="2" fill="#365c36"/><rect x="-12" y="-39" width="14" height="1" fill="#6e8c4b"/><rect x="-13" y="-37" width="26" height="2" fill="#365c36"/><rect x="-11" y="-37" width="13" height="1" fill="#4c7240"/><rect x="-13" y="-35" width="26" height="2" fill="#365c36"/><rect x="-11" y="-35" width="13" height="1" fill="#4c7240"/><rect x="-12" y="-33" width="24" height="2" fill="#365c36"/><rect x="-10" y="-33" width="12" height="1" fill="#4c7240"/><rect x="-11" y="-31" width="22" height="2" fill="#365c36"/><rect x="-9" y="-31" width="11" height="1" fill="#4c7240"/><rect x="-9" y="-29" width="18" height="2" fill="#365c36"/><rect x="-7" y="-29" width="9" height="1" fill="#4c7240"/><rect x="-7" y="-27" width="14" height="2" fill="#365c36"/><rect x="-5" y="-27" width="7" height="1" fill="#4c7240"/><rect x="0" y="-25" width="0" height="2" fill="#365c36"/><rect x="7" y="-35" width="3" height="1" fill="#96a360"/><rect x="-11" y="-44" width="3" height="1" fill="#6e8c4b"/><rect x="3" y="-27" width="3" height="1" fill="#4c7240"/><rect x="-7" y="-28" width="3" height="1" fill="#4c7240"/><rect x="12" y="-40" width="2" height="1" fill="#365c36"/><rect x="-4" y="-52" width="2" height="1" fill="#24462e"/><rect x="-8" y="-45" width="2" height="1" fill="#4c7240"/><rect x="8" y="-28" width="2" height="1" fill="#96a360"/><rect x="-7" y="-30" width="3" height="1" fill="#6e8c4b"/><rect x="1" y="-49" width="3" height="1" fill="#4c7240"/><rect x="-3" y="-40" width="0" height="2" fill="#4c7240"/><rect x="-10" y="-38" width="14" height="2" fill="#4c7240"/><rect x="-8" y="-38" width="7" height="1" fill="#6e8c4b"/><rect x="-12" y="-36" width="18" height="2" fill="#4c7240"/><rect x="-10" y="-36" width="9" height="1" fill="#6e8c4b"/><rect x="-14" y="-34" width="22" height="2" fill="#4c7240"/><rect x="-12" y="-34" width="11" height="1" fill="#6e8c4b"/><rect x="-15" y="-32" width="24" height="2" fill="#4c7240"/><rect x="-13" y="-32" width="12" height="1" fill="#6e8c4b"/><rect x="-16" y="-30" width="26" height="2" fill="#4c7240"/><rect x="-14" y="-30" width="13" height="1" fill="#6e8c4b"/><rect x="-16" y="-28" width="26" height="2" fill="#365c36"/><rect x="-14" y="-28" width="13" height="1" fill="#6e8c4b"/><rect x="-17" y="-26" width="28" height="2" fill="#365c36"/><rect x="-15" y="-26" width="14" height="1" fill="#6e8c4b"/><rect x="-16" y="-24" width="26" height="2" fill="#365c36"/><rect x="-14" y="-24" width="13" height="1" fill="#4c7240"/><rect x="-16" y="-22" width="26" height="2" fill="#365c36"/><rect x="-14" y="-22" width="13" height="1" fill="#4c7240"/><rect x="-15" y="-20" width="24" height="2" fill="#365c36"/><rect x="-13" y="-20" width="12" height="1" fill="#4c7240"/><rect x="-14" y="-18" width="22" height="2" fill="#365c36"/><rect x="-12" y="-18" width="11" height="1" fill="#4c7240"/><rect x="-12" y="-16" width="18" height="2" fill="#365c36"/><rect x="-10" y="-16" width="9" height="1" fill="#4c7240"/><rect x="-10" y="-14" width="14" height="2" fill="#365c36"/><rect x="-8" y="-14" width="7" height="1" fill="#4c7240"/><rect x="-3" y="-12" width="0" height="2" fill="#365c36"/><rect x="-11" y="-28" width="2" height="1" fill="#365c36"/><rect x="1" y="-14" width="2" height="1" fill="#365c36"/><rect x="-5" y="-26" width="2" height="1" fill="#6e8c4b"/><rect x="-6" y="-37" width="3" height="1" fill="#96a360"/><rect x="1" y="-18" width="2" height="1" fill="#4c7240"/><rect x="4" y="-21" width="3" height="1" fill="#365c36"/><rect x="1" y="-26" width="2" height="1" fill="#24462e"/><rect x="-3" y="-19" width="2" height="1" fill="#6e8c4b"/><rect x="-3" y="-25" width="2" height="1" fill="#96a360"/><rect x="10" y="-23" width="3" height="1" fill="#24462e"/><rect x="-4" y="-25" width="3" height="1" fill="#24462e"/><rect x="-5" y="-23" width="2" height="1" fill="#365c36"/><rect x="5" y="-36" width="2" height="1" fill="#4c7240"/><rect x="0" y="-37" width="3" height="1" fill="#365c36"/><rect x="9" y="-19" width="2" height="1" fill="#365c36"/></svg>